<!-- icon666.com - MILLIONS vector ICONS FREE --><svg fill="none" viewBox="0 0 24 24" xmlns="http://www.w3.org/2000/svg"><g clip-rule="evenodd" fill="rgb(0,0,0)" fill-rule="evenodd"><path d="m15.7071 7.29289c-.9428-.94281-2.4714-.94281-3.4142 0l-.2929.2929-.2929-.2929c-.9428-.94281-2.4714-.94281-3.41421 0s-.94281 2.47141 0 3.41421l3.00001 3c.3905.3905 1.0237.3905 1.4142 0l3-3c.9428-.9428.9428-2.4714 0-3.41421zm-2 1.41422c.1618-.16176.424-.16176.5858 0s.1618.42402 0 .58578l-2.2929 2.29291-2.2929-2.29291c-.16176-.16176-.16176-.42402.00001-.58578.16176-.16176.42399-.16176.58579 0l1 1c.3905.39049 1.0237.39049 1.4142 0z"></path><path d="m17 2c1.6569 0 3 1.34315 3 3v16c0 .3565-.1898.686-.4981.8649s-.6885.1802-.998.0033l-6.5039-3.7164-6.50386 3.7164c-.3095.1769-.68975.1756-.99807-.0033-.30831-.1789-.49807-.5084-.49807-.8649v-16c0-1.65685 1.34315-3 3-3zm1 3c0-.55228-.4477-1-1-1h-10c-.55228 0-1 .44772-1 1v14.2768l5.5039-3.145c.3074-.1757.6848-.1757.9922 0l5.5039 3.145z"></path></g></svg>