<?xml version="1.0" ?><svg id="Layer_1" style="enable-background:new 0 0 60 60;" version="1.1" viewBox="0 0 60 60" xml:space="preserve" xmlns="http://www.w3.org/2000/svg" xmlns:xlink="http://www.w3.org/1999/xlink"><path d="M30,5C16.21,5,5,16.21,5,30s11.21,25,25,25s25-11.21,25-25S43.79,5,30,5z M29,7.03v3.02C18.77,10.56,10.56,18.77,10.05,29  H7.03C7.54,17.11,17.11,7.54,29,7.03z M7.03,31h3.02C10.56,41.23,18.77,49.44,29,49.95v3.03C17.11,52.46,7.54,42.89,7.03,31z   M31,52.97v-3.02c8.95-0.46,16.66-6.93,18.55-15.75c0.12-0.54-0.23-1.07-0.77-1.19c-0.54-0.12-1.07,0.23-1.19,0.77  C45.9,41.69,39.01,47.5,31,47.95v-5.11c0-0.55-0.45-1-1-1s-1,0.45-1,1v5.1c-9.13-0.5-16.44-7.82-16.95-16.95h5.11c0.55,0,1-0.45,1-1  s-0.45-1-1-1h-5.11c0.5-9.13,7.82-16.45,16.95-16.95v5.11c0,0.55,0.45,1,1,1s1-0.45,1-1v-5.11c8,0.45,14.89,6.26,16.59,14.17  c0.12,0.54,0.65,0.89,1.19,0.77c0.54-0.12,0.88-0.65,0.77-1.19C47.65,16.97,39.94,10.5,31,10.04V7.03  C42.89,7.54,52.46,17.11,52.97,29H42.84c-0.55,0-1,0.45-1,1s0.45,1,1,1h10.13C52.46,42.89,42.89,52.46,31,52.97z"/><path d="M34.62,26.38c0-2.54-2.07-4.62-4.62-4.62s-4.62,2.07-4.62,4.62c0,0.55,0.45,1,1,1s1-0.45,1-1c0-1.44,1.17-2.62,2.62-2.62  s2.62,1.17,2.62,2.62S31.44,29,30,29c-0.55,0-1,0.45-1,1s0.45,1,1,1c1.44,0,2.62,1.17,2.62,2.62c0,1.44-1.17,2.62-2.62,2.62  s-2.62-1.17-2.62-2.62c0-0.55-0.45-1-1-1s-1,0.45-1,1c0,2.54,2.07,4.62,4.62,4.62s4.62-2.07,4.62-4.62c0-1.46-0.68-2.77-1.75-3.62  C33.93,29.15,34.62,27.85,34.62,26.38z"/></svg>